<svg xmlns="http://www.w3.org/2000/svg" viewBox="0 0 100 100">
  <!-- BLRT sail mark – white, transparent background -->
  <!-- Curved mast element: leftmost, thinnest, nearly vertical -->
  <path fill="white" d="M 28,91 C 24,64 17,33 15,6 L 22,4 C 24,31 27,63 34,91 Z"/>
  <!-- Blade 1 – steep -->
  <path fill="white" d="M 36,91 C 34,68 38,44 48,14 L 57,19 C 46,47 42,70 42,91 Z"/>
  <!-- Blade 2 -->
  <path fill="white" d="M 44,91 C 42,66 50,38 66,10 L 76,17 C 59,43 52,67 50,91 Z"/>
  <!-- Blade 3 -->
  <path fill="white" d="M 52,91 C 50,64 62,32 82,6 L 92,14 C 74,39 62,65 58,91 Z"/>
  <!-- Blade 4 – shallowest -->
  <path fill="white" d="M 60,91 C 58,62 74,26 97,3 L 100,15 C 87,33 76,63 66,91 Z"/>
</svg>
